<svg xmlns="http://www.w3.org/2000/svg" width="200" height="200" viewBox="0 0 200 200">
  <rect x="20" y="80" width="35" height="100" rx="2" fill="#1f2937" opacity="0.8"/>
  <rect x="22" y="85" width="8" height="12" rx="1" fill="#34d399" opacity="0.4"/>
  <rect x="34" y="85" width="8" height="12" rx="1" fill="#34d399" opacity="0.4"/>
  <rect x="46" y="85" width="8" height="12" rx="1" fill="#34d399" opacity="0.4"/>
  <rect x="22" y="102" width="8" height="12" rx="1" fill="#34d399" opacity="0.4"/>
  <rect x="34" y="102" width="8" height="12" rx="1" fill="#34d399" opacity="0.4"/>
  <rect x="46" y="102" width="8" height="12" rx="1" fill="#34d399" opacity="0.4"/>
  <rect x="22" y="119" width="8" height="12" rx="1" fill="#34d399" opacity="0.4"/>
  <rect x="34" y="119" width="8" height="12" rx="1" fill="#34d399" opacity="0.4"/>
  <rect x="46" y="119" width="8" height="12" rx="1" fill="#34d399" opacity="0.4"/>
  <rect x="22" y="136" width="8" height="12" rx="1" fill="#34d399" opacity="0.4"/>
  <rect x="34" y="136" width="8" height="12" rx="1" fill="#34d399" opacity="0.4"/>
  <rect x="46" y="136" width="8" height="12" rx="1" fill="#34d399" opacity="0.4"/>
  <rect x="22" y="153" width="8" height="12" rx="1" fill="#34d399" opacity="0.4"/>
  <rect x="34" y="153" width="8" height="12" rx="1" fill="#34d399" opacity="0.4"/>
  <rect x="46" y="153" width="8" height="12" rx="1" fill="#34d399" opacity="0.4"/>
  <rect x="65" y="40" width="40" height="140" rx="2" fill="#111827" opacity="0.9"/>
  <rect x="68" y="45" width="10" height="14" rx="1" fill="#6ee7b7" opacity="0.3"/>
  <rect x="82" y="45" width="10" height="14" rx="1" fill="#6ee7b7" opacity="0.3"/>
  <rect x="96" y="45" width="8" height="14" rx="1" fill="#6ee7b7" opacity="0.3"/>
  <rect x="68" y="64" width="10" height="14" rx="1" fill="#6ee7b7" opacity="0.3"/>
  <rect x="82" y="64" width="10" height="14" rx="1" fill="#6ee7b7" opacity="0.3"/>
  <rect x="96" y="64" width="8" height="14" rx="1" fill="#6ee7b7" opacity="0.3"/>
  <rect x="68" y="83" width="10" height="14" rx="1" fill="#6ee7b7" opacity="0.3"/>
  <rect x="82" y="83" width="10" height="14" rx="1" fill="#6ee7b7" opacity="0.3"/>
  <rect x="96" y="83" width="8" height="14" rx="1" fill="#6ee7b7" opacity="0.3"/>
  <rect x="68" y="102" width="10" height="14" rx="1" fill="#6ee7b7" opacity="0.3"/>
  <rect x="82" y="102" width="10" height="14" rx="1" fill="#6ee7b7" opacity="0.3"/>
  <rect x="96" y="102" width="8" height="14" rx="1" fill="#6ee7b7" opacity="0.3"/>
  <rect x="68" y="121" width="10" height="14" rx="1" fill="#6ee7b7" opacity="0.3"/>
  <rect x="82" y="121" width="10" height="14" rx="1" fill="#6ee7b7" opacity="0.3"/>
  <rect x="96" y="121" width="8" height="14" rx="1" fill="#6ee7b7" opacity="0.3"/>
  <rect x="68" y="140" width="10" height="14" rx="1" fill="#6ee7b7" opacity="0.3"/>
  <rect x="82" y="140" width="10" height="14" rx="1" fill="#6ee7b7" opacity="0.3"/>
  <rect x="96" y="140" width="8" height="14" rx="1" fill="#6ee7b7" opacity="0.3"/>
  <rect x="115" y="60" width="30" height="120" rx="2" fill="#1f2937" opacity="0.85"/>
  <rect x="118" y="65" width="8" height="10" rx="1" fill="#34d399" opacity="0.35"/>
  <rect x="130" y="65" width="8" height="10" rx="1" fill="#34d399" opacity="0.35"/>
  <rect x="118" y="80" width="8" height="10" rx="1" fill="#34d399" opacity="0.35"/>
  <rect x="130" y="80" width="8" height="10" rx="1" fill="#34d399" opacity="0.35"/>
  <rect x="118" y="95" width="8" height="10" rx="1" fill="#34d399" opacity="0.35"/>
  <rect x="130" y="95" width="8" height="10" rx="1" fill="#34d399" opacity="0.35"/>
  <rect x="118" y="110" width="8" height="10" rx="1" fill="#34d399" opacity="0.35"/>
  <rect x="130" y="110" width="8" height="10" rx="1" fill="#34d399" opacity="0.35"/>
  <rect x="118" y="125" width="8" height="10" rx="1" fill="#34d399" opacity="0.35"/>
  <rect x="130" y="125" width="8" height="10" rx="1" fill="#34d399" opacity="0.35"/>
  <rect x="155" y="90" width="45" height="90" rx="2" fill="#0f172a" opacity="0.75"/>
  <rect x="158" y="95" width="8" height="10" rx="1" fill="#6ee7b7" opacity="0.25"/>
  <rect x="170" y="95" width="8" height="10" rx="1" fill="#6ee7b7" opacity="0.25"/>
  <rect x="182" y="95" width="8" height="10" rx="1" fill="#6ee7b7" opacity="0.25"/>
  <rect x="158" y="110" width="8" height="10" rx="1" fill="#6ee7b7" opacity="0.25"/>
  <rect x="170" y="110" width="8" height="10" rx="1" fill="#6ee7b7" opacity="0.25"/>
  <rect x="182" y="110" width="8" height="10" rx="1" fill="#6ee7b7" opacity="0.25"/>
  <rect x="158" y="125" width="8" height="10" rx="1" fill="#6ee7b7" opacity="0.25"/>
  <rect x="170" y="125" width="8" height="10" rx="1" fill="#6ee7b7" opacity="0.25"/>
  <rect x="182" y="125" width="8" height="10" rx="1" fill="#6ee7b7" opacity="0.25"/>
  <rect x="158" y="140" width="8" height="10" rx="1" fill="#6ee7b7" opacity="0.25"/>
  <rect x="170" y="140" width="8" height="10" rx="1" fill="#6ee7b7" opacity="0.25"/>
  <rect x="182" y="140" width="8" height="10" rx="1" fill="#6ee7b7" opacity="0.25"/>
  <rect x="0" y="178" width="200" height="4" rx="1" fill="#059669" opacity="0.3"/>
</svg>